HIERARCHY
ROOT Root
{
  OFFSET 0.0 0.0 0.0
  CHANNELS 6 Xposition Yposition Zposition Zrotation Yrotation Xrotation
  JOINT Hips
  {
    OFFSET 0.0 100.0 0.0
    CHANNELS 6 Xposition Yposition Zposition Zrotation Yrotation Xrotation
    JOINT Spine1
    {
      OFFSET 5.003913 -0.037094 -0.013727
      CHANNELS 3 Zrotation Yrotation Xrotation
      JOINT Spine2
      {
        OFFSET 7.125363 -1e-06 0.0
        CHANNELS 3 Zrotation Yrotation Xrotation
        JOINT Chest
        {
          OFFSET 7.594027 1e-06 0.0
          CHANNELS 3 Zrotation Yrotation Xrotation
          JOINT Neck1
          {
            OFFSET 26.313086 -0.460272 -0.181672
            CHANNELS 3 Zrotation Yrotation Xrotation
            JOINT Neck2
            {
              OFFSET 8.045911 0.0 0.0
              CHANNELS 3 Zrotation Yrotation Xrotation
              JOINT Head
              {
                OFFSET 6.432774 0.0 0.0
                CHANNELS 3 Zrotation Yrotation Xrotation
                JOINT HeadEnd
                {
                  OFFSET 16.169773 0.06451 0.00362
                  CHANNELS 3 Zrotation Yrotation Xrotation
                }
                JOINT Jaw
                {
                  OFFSET 0.108741 3.12938 0.002639
                  CHANNELS 3 Zrotation Yrotation Xrotation
                }
                JOINT LeftEye
                {
                  OFFSET 4.45173 8.166359 3.206392
                  CHANNELS 3 Zrotation Yrotation Xrotation
                }
                JOINT RightEye
                {
                  OFFSET 4.436895 8.135758 -3.222429
                  CHANNELS 3 Zrotation Yrotation Xrotation
                }
              }
            }
          }
          JOINT LeftShoulder
          {
            OFFSET 23.218927 5.195579 1.621656
            CHANNELS 3 Zrotation Yrotation Xrotation
            JOINT LeftArm
            {
              OFFSET 15.902118 2e-06 -2e-06
              CHANNELS 3 Zrotation Yrotation Xrotation
              JOINT LeftForeArm
              {
                OFFSET 28.739307 0.0 -1e-06
                CHANNELS 3 Zrotation Yrotation Xrotation
                JOINT LeftHand
                {
                  OFFSET 27.093981 -4e-06 0.0
                  CHANNELS 3 Zrotation Yrotation Xrotation
                  JOINT LeftHandThumb1
                  {
                    OFFSET 2.276781 3.380274 0.83384
                    CHANNELS 3 Zrotation Yrotation Xrotation
                    JOINT LeftHandThumb2
                    {
                      OFFSET 4.705309 -1e-06 -1e-06
                      CHANNELS 3 Zrotation Yrotation Xrotation
                      JOINT LeftHandThumb3
                      {
                        OFFSET 2.798515 0.0 3e-06
                        CHANNELS 3 Zrotation Yrotation Xrotation
                        JOINT LeftHandThumbEnd
                        {
                          OFFSET 3.180793 4e-06 -4e-06
                          CHANNELS 3 Zrotation Yrotation Xrotation
                        }
                      }
                    }
                  }
                  JOINT LeftHandIndex1
                  {
                    OFFSET 3.247786 2.352677 0.137192
                    CHANNELS 3 Zrotation Yrotation Xrotation
                    JOINT LeftHandIndex2
                    {
                      OFFSET 6.367095 1e-06 0.0
                      CHANNELS 3 Zrotation Yrotation Xrotation
                      JOINT LeftHandIndex3
                      {
                        OFFSET 3.662364 0.0 0.0
                        CHANNELS 3 Zrotation Yrotation Xrotation
                        JOINT LeftHandIndex4
                        {
                          OFFSET 2.329242 4e-06 -4e-06
                          CHANNELS 3 Zrotation Yrotation Xrotation
                          JOINT LeftHandIndexEnd
                          {
                            OFFSET 2.767823 1e-06 0.0
                            CHANNELS 3 Zrotation Yrotation Xrotation
                          }
                        }
                      }
                    }
                  }
                  JOINT LeftHandMiddle1
                  {
                    OFFSET 3.163612 0.945023 -0.406112
                    CHANNELS 3 Zrotation Yrotation Xrotation
                    JOINT LeftHandMiddle2
                    {
                      OFFSET 6.276789 3e-06 0.0
                      CHANNELS 3 Zrotation Yrotation Xrotation
                      JOINT LeftHandMiddle3
                      {
                        OFFSET 4.35652 -1e-06 4e-06
                        CHANNELS 3 Zrotation Yrotation Xrotation
                        JOINT LeftHandMiddle4
                        {
                          OFFSET 2.996877 0.0 8e-06
                          CHANNELS 3 Zrotation Yrotation Xrotation
                          JOINT LeftHandMiddleEnd
                          {
                            OFFSET 2.323256 3e-06 -4e-06
                            CHANNELS 3 Zrotation Yrotation Xrotation
                          }
                        }
                      }
                    }
                  }
                  JOINT LeftHandRing1
                  {
                    OFFSET 2.882606 -0.309162 0.107445
                    CHANNELS 3 Zrotation Yrotation Xrotation
                    JOINT LeftHandRing2
                    {
                      OFFSET 6.033198 0.0 4e-06
                      CHANNELS 3 Zrotation Yrotation Xrotation
                      JOINT LeftHandRing3
                      {
                        OFFSET 4.350578 3e-06 0.0
                        CHANNELS 3 Zrotation Yrotation Xrotation
                        JOINT LeftHandRing4
                        {
                          OFFSET 2.651321 2e-06 -7e-06
                          CHANNELS 3 Zrotation Yrotation Xrotation
                          JOINT LeftHandRingEnd
                          {
                            OFFSET 1.937663 1e-06 -4e-06
                            CHANNELS 3 Zrotation Yrotation Xrotation
                          }
                        }
                      }
                    }
                  }
                  JOINT LeftHandPinky1
                  {
                    OFFSET 2.865315 -1.525436 0.575687
                    CHANNELS 3 Zrotation Yrotation Xrotation
                    JOINT LeftHandPinky2
                    {
                      OFFSET 5.54936 1e-06 -8e-06
                      CHANNELS 3 Zrotation Yrotation Xrotation
                      JOINT LeftHandPinky3
                      {
                        OFFSET 3.070974 0.0 -4e-06
                        CHANNELS 3 Zrotation Yrotation Xrotation
                        JOINT LeftHandPinky4
                        {
                          OFFSET 1.549672 1e-06 0.0
                          CHANNELS 3 Zrotation Yrotation Xrotation
                          JOINT LeftHandPinkyEnd
                          {
                            OFFSET 1.952123 0.0 0.0
                            CHANNELS 3 Zrotation Yrotation Xrotation
                          }
                        }
                      }
                    }
                  }
                }
              }
            }
          }
          JOINT RightShoulder
          {
            OFFSET 23.161716 5.296122 -1.380114
            CHANNELS 3 Zrotation Yrotation Xrotation
            JOINT RightArm
            {
              OFFSET -16.027195 -2e-06 1.1e-05
              CHANNELS 3 Zrotation Yrotation Xrotation
              JOINT RightForeArm
              {
                OFFSET -28.736639 4e-06 2e-06
                CHANNELS 3 Zrotation Yrotation Xrotation
                JOINT RightHand
                {
                  OFFSET -27.133619 6e-06 0.0
                  CHANNELS 3 Zrotation Yrotation Xrotation
                  JOINT RightHandThumb1
                  {
                    OFFSET -2.274328 -3.351035 -0.83067
                    CHANNELS 3 Zrotation Yrotation Xrotation
                    JOINT RightHandThumb2
                    {
                      OFFSET -4.703594 -3e-06 2e-06
                      CHANNELS 3 Zrotation Yrotation Xrotation
                      JOINT RightHandThumb3
                      {
                        OFFSET -2.794935 -4e-06 -3e-06
                        CHANNELS 3 Zrotation Yrotation Xrotation
                        JOINT RightHandThumbEnd
                        {
                          OFFSET -3.183852 4e-06 1e-06
                          CHANNELS 3 Zrotation Yrotation Xrotation
                        }
                      }
                    }
                  }
                  JOINT RightHandIndex1
                  {
                    OFFSET -3.253496 -2.33755 -0.127667
                    CHANNELS 3 Zrotation Yrotation Xrotation
                    JOINT RightHandIndex2
                    {
                      OFFSET -6.344434 0.0 0.0
                      CHANNELS 3 Zrotation Yrotation Xrotation
                      JOINT RightHandIndex3
                      {
                        OFFSET -3.654871 0.0 -8e-06
                        CHANNELS 3 Zrotation Yrotation Xrotation
                        JOINT RightHandIndex4
                        {
                          OFFSET -2.327586 -1e-06 0.0
                          CHANNELS 3 Zrotation Yrotation Xrotation
                          JOINT RightHandIndexEnd
                          {
                            OFFSET -2.770001 3e-06 8e-06
                            CHANNELS 3 Zrotation Yrotation Xrotation
                          }
                        }
                      }
                    }
                  }
                  JOINT RightHandMiddle1
                  {
                    OFFSET -3.168223 -0.944764 0.411762
                    CHANNELS 3 Zrotation Yrotation Xrotation
                    JOINT RightHandMiddle2
                    {
                      OFFSET -6.266691 -1e-06 -4e-06
                      CHANNELS 3 Zrotation Yrotation Xrotation
                      JOINT RightHandMiddle3
                      {
                        OFFSET -4.348901 0.0 0.0
                        CHANNELS 3 Zrotation Yrotation Xrotation
                        JOINT RightHandMiddle4
                        {
                          OFFSET -3.00024 2e-06 -4e-06
                          CHANNELS 3 Zrotation Yrotation Xrotation
                          JOINT RightHandMiddleEnd
                          {
                            OFFSET -2.321477 -4e-06 -4e-06
                            CHANNELS 3 Zrotation Yrotation Xrotation
                          }
                        }
                      }
                    }
                  }
                  JOINT RightHandRing1
                  {
                    OFFSET -2.885654 0.293261 -0.119232
                    CHANNELS 3 Zrotation Yrotation Xrotation
                    JOINT RightHandRing2
                    {
                      OFFSET -6.032835 -1e-06 -4e-06
                      CHANNELS 3 Zrotation Yrotation Xrotation
                      JOINT RightHandRing3
                      {
                        OFFSET -4.33881 0.0 -4e-06
                        CHANNELS 3 Zrotation Yrotation Xrotation
                        JOINT RightHandRing4
                        {
                          OFFSET -2.654903 -4e-06 -4e-06
                          CHANNELS 3 Zrotation Yrotation Xrotation
                          JOINT RightHandRingEnd
                          {
                            OFFSET -1.935122 0.0 4e-06
                            CHANNELS 3 Zrotation Yrotation Xrotation
                          }
                        }
                      }
                    }
                  }
                  JOINT RightHandPinky1
                  {
                    OFFSET -2.866241 1.503904 -0.60527
                    CHANNELS 3 Zrotation Yrotation Xrotation
                    JOINT RightHandPinky2
                    {
                      OFFSET -5.553177 -2e-06 0.0
                      CHANNELS 3 Zrotation Yrotation Xrotation
                      JOINT RightHandPinky3
                      {
                        OFFSET -3.062664 -1e-06 -4e-06
                        CHANNELS 3 Zrotation Yrotation Xrotation
                        JOINT RightHandPinky4
                        {
                          OFFSET -1.546529 2e-06 4e-06
                          CHANNELS 3 Zrotation Yrotation Xrotation
                          JOINT RightHandPinkyEnd
                          {
                            OFFSET -1.952341 0.0 -4e-06
                            CHANNELS 3 Zrotation Yrotation Xrotation
                          }
                        }
                      }
                    }
                  }
                }
              }
            }
          }
        }
      }
    }
    JOINT LeftLeg
    {
      OFFSET -8.443107 2.567604 10.043214
      CHANNELS 3 Zrotation Yrotation Xrotation
      JOINT LeftShin
      {
        OFFSET 43.229198 1e-06 -1e-06
        CHANNELS 3 Zrotation Yrotation Xrotation
        JOINT LeftFoot
        {
          OFFSET 42.298611 1e-06 1e-06
          CHANNELS 3 Zrotation Yrotation Xrotation
          JOINT LeftToeBase
          {
            OFFSET 14.165858 1e-06 0.0
            CHANNELS 3 Zrotation Yrotation Xrotation
            JOINT LeftToeEnd
            {
              OFFSET 6.7141 -0.234461 0.0
              CHANNELS 3 Zrotation Yrotation Xrotation
            }
          }
        }
      }
    }
    JOINT RightLeg
    {
      OFFSET -8.303923 2.592729 -10.047278
      CHANNELS 3 Zrotation Yrotation Xrotation
      JOINT RightShin
      {
        OFFSET -43.369682 0.0 1e-06
        CHANNELS 3 Zrotation Yrotation Xrotation
        JOINT RightFoot
        {
          OFFSET -42.260784 4e-06 2e-06
          CHANNELS 3 Zrotation Yrotation Xrotation
          JOINT RightToeBase
          {
            OFFSET -14.222245 -2e-06 -1e-06
            CHANNELS 3 Zrotation Yrotation Xrotation
            JOINT RightToeEnd
            {
              OFFSET -6.660062 0.232574 -2e-06
              CHANNELS 3 Zrotation Yrotation Xrotation
            }
          }
        }
      }
    }
  }
}
MOTION
Frames: 4
Frame Time: 0.03333333333333333
0.0 0.0 0.0 0.0 -0.0 0.0 -2.866704 94.621239 216.337448 85.727562 -2.169307 94.301147 -3.132837 2.030978 -0.228479 -12.757071 -0.277447 -1.962675 27.899904 3.222514 -3.364013 37.024715 -1.295945 2.203066 -2.631246 -0.793506 -1.252537 -34.050896 -1.244153 -0.950111 -2e-06 -0.000319 -0.000448 -0.020864 -0.0035 0.041655 -0.021472 -0.044119 0.06498 -0.054351 0.029505 0.031117 145.608856 -88.097313 -125.255287 63.572254 -50.904579 -17.398561 29.476395 0.059347 0.021228 -0.244702 2.404101 -13.818826 17.658625 -26.370325 52.558712 -19.455936 -14.415013 29.445581 0.014678 -8.777574 0.006468 16.254343 -18.323713 6.192932 -0.604483 -1.795486 -3.895053 -4.836355 -11.060603 -2.912832 -0.018764 -20.974985 -0.017813 -5.062663 -25.041389 -4.04731 -0.000219 0.008428 0.000591 -10.64806 -5.694084 -3.555371 10.56952 -17.910425 -3.109988 -0.012066 -13.83087 0.001969 -0.496846 -31.206974 -4.034143 -11.627813 -59.608387 7.684652 -14.000525 -7.16165 -2.866003 13.785497 -8.390744 -3.222931 0.299177 -34.221233 0.790739 -0.979415 -17.735142 2.633177 -0.002428 -0.001149 0.003982 -17.399792 -20.11945 -4.190984 21.809324 -1.630514 3.86956 0.00082 -6.35397 0.032601 -1.717572 -22.580526 -6.220583 0.006841 -0.009097 -0.008033 -1.209652 -82.180939 -154.396378 53.256718 -48.531891 -8.131724 26.954725 -0.232961 0.121053 -5.024754 3.808135 -16.457714 22.191471 -20.40563 50.09903 -16.702229 -16.763325 28.533585 0.015711 -12.700367 -0.015621 16.290682 -18.24379 2.55192 -0.101641 -1.51136 -4.268227 -5.050958 -5.619783 -2.967556 -0.006416 -11.023348 0.000903 -6.122416 -15.891647 -3.85795 0.000211 0.002776 -0.009772 -10.300868 -5.690854 -4.347184 11.033548 -11.296741 -2.373734 -1.398044 -14.252829 -6.335202 -0.627868 -26.948435 -3.855007 -4.078827 -50.168564 -3.914653 -13.737018 -7.38137 -3.721013 18.154089 -14.032996 -3.244268 -0.02179 -18.790289 -0.001777 -0.44682 -8.461253 2.562921 0.006985 -0.007111 0.008483 -15.967475 -20.12439 -5.480487 30.456364 -7.172908 1.754934 -0.003162 -8.160967 -0.006773 -1.881345 -22.843472 -6.185455 0.004163 -0.011816 0.003473 176.937286 -6.813766 -1.179162 64.659508 -0.494308 0.24898 -69.388077 7.382261 2.824126 -12.828485 1.696042 2.049514 -1.007564 0.001872 -0.000546 -30.265471 6.538826 -0.884411 38.623642 0.003897 0.105353 -80.173126 -4.055945 1.950298 -5.741765 0.478104 1.62631 -0.997276 -9.8e-05 -2e-06 
0.0 0.0 0.0 0.0 -0.0 0.0 -3.087351 94.92926 219.577103 85.695793 -1.491658 94.129875 -2.895307 2.234486 -0.144937 -12.679001 -0.274542 -1.932127 27.802689 3.01559 -3.191977 37.059616 -1.388759 2.260186 -2.646247 -0.798027 -1.31405 -34.163811 -1.272169 -0.885951 -0.003442 -3.6e-05 0.000319 -0.017519 -0.007334 0.034109 -0.017862 -0.03541 0.050988 -0.064879 0.011192 0.028613 151.889252 -90.0 -132.4272 63.268581 -51.639339 -16.481007 28.3459 0.12667 0.017911 -0.44172 2.1107 -14.20772 17.652555 -26.354773 52.549343 -19.492262 -14.414628 29.455116 0.002773 -8.789506 0.018459 16.296442 -18.34057 6.239426 -0.6094 -1.790057 -3.911128 -4.818433 -11.068815 -2.930995 -0.007069 -21.017408 0.005418 -5.027615 -25.089817 -4.051195 -0.004591 0.009125 0.005587 -10.648397 -5.698149 -3.578927 10.579073 -17.946634 -3.107783 -0.002487 -13.830871 -0.02065 -0.529551 -31.264488 -4.041079 -11.336474 -59.933716 7.544148 -14.002535 -7.162643 -2.897025 13.799892 -8.417825 -3.214494 0.333712 -34.265675 0.770881 -0.97651 -17.767178 2.623506 -0.004728 0.002978 0.005655 -17.369833 -20.138796 -4.241971 21.78179 -1.651594 3.895781 -0.004329 -6.334575 -0.014908 -1.685678 -22.623257 -6.182305 -0.002514 0.0 0.007732 -1.468143 -83.153152 -154.475433 53.967426 -48.311108 -7.68879 27.981989 -0.070209 0.130404 -5.150707 3.939934 -16.771662 22.195198 -20.383085 49.999557 -16.721043 -16.750284 28.497898 0.010404 -12.694218 -0.004544 16.089483 -18.231585 2.659686 -0.098644 -1.515073 -4.282316 -5.045619 -5.622531 -2.94538 0.001997 -11.040081 -0.009958 -6.123224 -15.931509 -3.834893 -0.003824 0.005655 -0.001183 -10.282988 -5.682639 -4.337436 11.036875 -11.307963 -2.381212 -1.393197 -14.254002 -6.326023 -0.620173 -26.964794 -3.846211 -4.162084 -50.10569 -3.908767 -13.716512 -7.370296 -3.720533 18.170883 -14.065409 -3.256395 0.000335 -18.802366 0.014113 -0.436595 -8.462786 2.542859 -0.002873 -0.004916 0.011161 -15.927313 -20.115009 -5.479987 30.448799 -7.215408 1.733431 0.007613 -8.165159 -0.007528 -1.871495 -22.880993 -6.183711 0.00879 -0.020442 -0.01064 174.160309 -7.234281 -1.056221 69.75872 -0.497423 0.230327 -70.266479 6.169781 2.157881 -9.823303 1.662799 2.093537 -1.012638 -0.001688 0.000949 -27.311186 7.156791 -0.525427 38.809578 -0.042622 0.074936 -82.623016 -4.206895 2.216927 -5.619782 0.488679 1.631014 -0.996725 -0.000826 -0.000142 
0.0 0.0 0.0 0.0 -0.0 0.0 -3.270435 95.248863 222.63472 85.802521 -0.84667 93.966949 -2.729529 2.384299 -0.106688 -12.614577 -0.261523 -1.753215 27.751879 2.734449 -3.064124 37.069122 -1.474171 2.317217 -2.618123 -0.745694 -1.392527 -34.149788 -1.316033 -0.816432 3e-06 0.0 -0.000109 -0.013847 -0.012683 0.01641 0.016228 -0.023316 0.040246 -0.034009 -0.011041 0.004747 163.104172 -88.112701 -142.454361 62.50806 -52.050846 -15.814721 27.279606 0.211894 0.019602 -0.605938 1.971713 -14.522562 17.61426 -26.32218 52.54026 -19.446737 -14.389988 29.453787 -0.003917 -8.773465 -5.2e-05 16.241932 -18.334566 6.287327 -0.609718 -1.789019 -3.894553 -4.813839 -11.050694 -2.921988 0.001915 -20.954788 -0.000863 -4.994365 -25.050053 -4.059865 0.001044 0.008247 -0.002773 -10.633929 -5.685368 -3.556724 10.565044 -17.917301 -3.127087 -0.000346 -13.823186 0.001489 -0.49509 -31.16795 -4.038365 -11.43983 -59.865181 7.59753 -13.989888 -7.155809 -2.891365 13.780875 -8.396437 -3.201004 0.320592 -34.226406 0.764129 -0.972655 -17.751936 2.604601 0.003008 0.014767 0.010608 -17.353119 -20.104137 -4.209664 21.763842 -1.632921 3.877054 -0.001291 -6.33971 0.007877 -1.690546 -22.576494 -6.212099 0.00456 -0.006744 -0.014924 -2.224181 -82.65834 -153.553589 54.387161 -47.864643 -7.393541 29.044352 0.120589 0.148454 -5.150474 4.275641 -16.887192 22.165873 -20.355053 49.931702 -16.676399 -16.739811 28.462648 -0.000125 -12.690122 0.000439 15.98691 -18.261591 2.725863 -0.113594 -1.514629 -4.287107 -5.039219 -5.609028 -2.950823 -0.003635 -11.009796 -0.00866 -6.116336 -15.880161 -3.816574 -0.000504 0.00505 -0.006642 -10.291463 -5.685544 -4.342847 11.026496 -11.295377 -2.381379 -1.393272 -14.240096 -6.317504 -0.635348 -26.937675 -3.839339 -4.231281 -49.969959 -3.898084 -13.716074 -7.367389 -3.723137 18.13913 -14.033039 -3.239872 -0.008208 -18.770271 0.002431 -0.43404 -8.451324 2.545171 0.004451 -0.0061 0.008131 -15.922267 -20.102545 -5.480447 30.391249 -7.169106 1.733707 0.003202 -8.156931 0.012588 -1.880862 -22.823605 -6.158185 0.014637 0.001529 0.006643 171.183228 -7.309164 -0.73188 72.725639 -0.442433 0.225107 -73.021324 4.445218 1.781287 -9.234286 1.651824 2.08068 -0.99155 -0.000148 -0.000281 -24.265095 7.617467 -0.077885 38.451214 -0.080429 0.060573 -84.523369 -4.225353 2.407467 -5.441138 0.543103 1.64959 -0.999898 0.001908 -0.000534 
0.0 0.0 0.0 0.0 -0.0 0.0 -3.45723 95.571625 225.702927 85.972443 -0.258882 93.767342 -2.613601 2.498373 -0.065633 -12.567605 -0.236276 -1.472526 27.770451 2.403471 -2.929652 37.246181 -1.557948 2.385908 -2.622419 -0.698496 -1.513695 -34.04752 -1.329424 -0.815649 0.003408 0.00043 6e-05 -0.027223 -0.016406 0.002454 0.002851 -0.020623 0.032087 -0.037089 -0.01881 -0.015705 -178.777466 -90.0 -161.731232 62.225899 -52.745018 -15.980626 26.604635 0.263683 0.012002 -0.781158 2.00287 -14.748878 17.632051 -26.382515 52.498604 -19.474718 -14.396852 29.435257 -0.005693 -8.765642 -0.016759 16.22065 -18.369938 6.275962 -0.612496 -1.797589 -3.89543 -4.8003 -11.043021 -2.921275 0.00397 -20.9715 -0.002616 -5.030412 -25.032444 -4.001812 0.012345 -0.007109 -0.007248 -10.624023 -5.678377 -3.567409 10.569644 -17.933939 -3.098042 0.012492 -13.823155 -0.003744 -0.487839 -31.202757 -4.010036 -11.589881 -60.007343 7.647624 -13.96518 -7.136295 -2.865812 13.758795 -8.404184 -3.217159 0.357246 -34.216614 0.783279 -0.96081 -17.752577 2.625182 -0.000741 0.000253 0.005864 -17.318184 -20.092239 -4.219318 21.740602 -1.655273 3.883141 -6.1e-05 -6.350454 -0.006655 -1.674364 -22.634413 -6.203507 -0.012952 -0.002683 0.011219 -3.298995 -83.363304 -152.807159 54.925415 -47.579643 -7.469506 30.276091 0.265658 0.180145 -5.250009 4.652537 -17.027712 22.19446 -20.365046 49.945076 -16.731256 -16.750448 28.506161 -0.011932 -12.69703 -0.004941 15.942615 -18.248423 2.742584 -0.098685 -1.51665 -4.280126 -5.04043 -5.610763 -2.950736 0.012235 -11.025546 -0.015787 -6.097725 -15.890565 -3.847562 0.002065 -0.019007 0.008312 -10.287807 -5.681811 -4.335902 11.053009 -11.320302 -2.382812 -1.385622 -14.259237 -6.332802 -0.616633 -26.952984 -3.848336 -4.280639 -50.035202 -3.84801 -13.706351 -7.361429 -3.721829 18.153341 -14.060368 -3.251191 0.005145 -18.803522 -0.007202 -0.428433 -8.457639 2.549691 0.000351 -0.008524 0.005 -15.909304 -20.106352 -5.491268 30.416595 -7.213504 1.72439 0.005402 -8.172356 0.002036 -1.823 -22.897005 -6.164711 -0.00314 0.021233 0.001787 168.120743 -7.004772 -0.175054 73.074921 -0.373203 0.221027 -75.701714 2.443614 1.545322 -9.15772 1.626048 2.04428 -1.001131 7e-06 -3.2e-05 -20.972103 8.00701 0.480996 37.678196 -0.071811 0.071345 -86.425728 -4.225273 2.638483 -5.268187 0.611901 1.674904 -0.999537 -0.004491 -0.001778 
